<svg xmlns="http://www.w3.org/2000/svg" width="20" height="20" viewBox="0 0 20 20" fill="none">
<path d="M1.66699 14.0833C1.66699 12.9922 1.66699 12.4466 1.91259 12.0458C2.05002 11.8216 2.23857 11.633 2.46283 11.4956C2.86361 11.25 3.40918 11.25 4.50033 11.25H5.41699C6.98834 11.25 7.77402 11.25 8.26217 11.7382C8.75033 12.2263 8.75033 13.012 8.75033 14.5833V15.5C8.75033 16.5911 8.75033 17.1367 8.50473 17.5375C8.3673 17.7618 8.17875 17.9503 7.95449 18.0877C7.55371 18.3333 7.00814 18.3333 5.91699 18.3333C4.28028 18.3333 3.46192 18.3333 2.86075 17.9649C2.52436 17.7588 2.24153 17.476 2.03539 17.1396C1.66699 16.5384 1.66699 15.72 1.66699 14.0833Z" stroke="#6366F1" stroke-width="1.25"/>
<path d="M11.25 4.5013C11.25 3.41016 11.25 2.86459 11.4956 2.4638C11.633 2.23955 11.8216 2.05099 12.0458 1.91357C12.4466 1.66797 12.9922 1.66797 14.0833 1.66797C15.72 1.66797 16.5384 1.66797 17.1396 2.03637C17.476 2.24251 17.7588 2.52533 17.9649 2.86172C18.3333 3.4629 18.3333 4.28125 18.3333 5.91797C18.3333 7.00911 18.3333 7.55468 18.0877 7.95547C17.9503 8.17973 17.7618 8.36828 17.5375 8.5057C17.1367 8.7513 16.5911 8.7513 15.5 8.7513H14.5833C13.012 8.7513 12.2263 8.7513 11.7382 8.26315C11.25 7.77499 11.25 6.98932 11.25 5.41797V4.5013Z" stroke="#6366F1" stroke-width="1.25"/>
<path d="M13.75 5.20964C13.75 4.78013 13.75 4.56538 13.8576 4.41374C13.8956 4.36024 13.9423 4.31352 13.9958 4.27556C14.1474 4.16797 14.3622 4.16797 14.7917 4.16797C15.2212 4.16797 15.4359 4.16797 15.5876 4.27556C15.6411 4.31352 15.6878 4.36024 15.7257 4.41374C15.8333 4.56538 15.8333 4.78013 15.8333 5.20964C15.8333 5.63914 15.8333 5.85389 15.7257 6.00553C15.6878 6.05903 15.6411 6.10575 15.5876 6.14371C15.4359 6.2513 15.2212 6.2513 14.7917 6.2513C14.3622 6.2513 14.1474 6.2513 13.9958 6.14371C13.9423 6.10575 13.8956 6.05903 13.8576 6.00553C13.75 5.85389 13.75 5.63914 13.75 5.20964Z" fill="#6366F1"/>
<path d="M10.625 18.3333C10.625 18.6785 10.9048 18.9583 11.25 18.9583C11.5952 18.9583 11.875 18.6785 11.875 18.3333H10.625ZM11.9907 11.5309L12.3379 12.0506L12.3379 12.0506L11.9907 11.5309ZM11.5309 11.9907L11.0112 11.6435L11.0112 11.6435L11.5309 11.9907ZM15.8333 10.625H14.1667V11.875H15.8333V10.625ZM10.625 15.8333V18.3333H11.875V15.8333H10.625ZM14.1667 10.625C13.5945 10.625 13.1183 10.6242 12.7342 10.6633C12.3396 10.7035 11.9735 10.7907 11.6435 11.0112L12.3379 12.0506C12.4283 11.9902 12.565 11.937 12.8607 11.9069C13.1669 11.8758 13.5685 11.875 14.1667 11.875V10.625ZM11.875 14.1667C11.875 13.5685 11.8758 13.1669 11.9069 12.8607C11.937 12.565 11.9902 12.4283 12.0506 12.3379L11.0112 11.6435C10.7907 11.9735 10.7035 12.3396 10.6633 12.7342C10.6242 13.1183 10.625 13.5945 10.625 14.1667H11.875ZM11.6435 11.0112C11.3933 11.1784 11.1784 11.3933 11.0112 11.6435L12.0506 12.3379C12.1266 12.2242 12.2242 12.1266 12.3379 12.0506L11.6435 11.0112Z" fill="#6366F1"/>
<path d="M18.9587 11.25C18.9587 10.9048 18.6788 10.625 18.3337 10.625C17.9885 10.625 17.7087 10.9048 17.7087 11.25H18.9587ZM17.3048 18.2065L17.544 18.7839L17.544 18.7839L17.3048 18.2065ZM18.2068 17.3045L17.6294 17.0653L17.6294 17.0653L18.2068 17.3045ZM14.167 18.9583H15.8337V17.7083H14.167V18.9583ZM18.9587 14.1667V11.25H17.7087V14.1667H18.9587ZM15.8337 18.9583C16.2134 18.9583 16.5295 18.9587 16.7881 18.941C17.0524 18.923 17.302 18.8841 17.544 18.7839L17.0656 17.629C17.0013 17.6557 16.9036 17.6802 16.703 17.6939C16.4968 17.708 16.2305 17.7083 15.8337 17.7083V18.9583ZM17.7087 15.8333C17.7087 16.2302 17.7083 16.4965 17.6943 16.7027C17.6806 16.9033 17.656 17.001 17.6294 17.0653L18.7842 17.5437C18.8845 17.3017 18.9233 17.0521 18.9414 16.7878C18.959 16.5292 18.9587 16.2131 18.9587 15.8333H17.7087ZM17.544 18.7839C18.1055 18.5513 18.5516 18.1052 18.7842 17.5436L17.6294 17.0653C17.5236 17.3205 17.3209 17.5233 17.0656 17.629L17.544 18.7839Z" fill="#6366F1"/>
<path d="M1.66699 5.91797C1.66699 4.28125 1.66699 3.4629 2.03539 2.86172C2.24153 2.52533 2.52436 2.24251 2.86075 2.03637C3.46192 1.66797 4.28028 1.66797 5.91699 1.66797C7.00814 1.66797 7.55371 1.66797 7.95449 1.91357C8.17875 2.05099 8.3673 2.23955 8.50473 2.4638C8.75033 2.86459 8.75033 3.41016 8.75033 4.5013V5.41797C8.75033 6.98932 8.75033 7.77499 8.26217 8.26315C7.77402 8.7513 6.98834 8.7513 5.41699 8.7513H4.50033C3.40918 8.7513 2.86361 8.7513 2.46283 8.5057C2.23857 8.36828 2.05002 8.17973 1.91259 7.95547C1.66699 7.55468 1.66699 7.00911 1.66699 5.91797Z" stroke="#6366F1" stroke-width="1.25"/>
<path d="M4.16699 5.20964C4.16699 4.78013 4.16699 4.56538 4.27458 4.41374C4.31255 4.36024 4.35926 4.31352 4.41277 4.27556C4.5644 4.16797 4.77915 4.16797 5.20866 4.16797C5.63816 4.16797 5.85292 4.16797 6.00455 4.27556C6.05806 4.31352 6.10477 4.36024 6.14274 4.41374C6.25033 4.56538 6.25033 4.78013 6.25033 5.20964C6.25033 5.63914 6.25033 5.85389 6.14274 6.00553C6.10477 6.05903 6.05806 6.10575 6.00455 6.14371C5.85292 6.2513 5.63816 6.2513 5.20866 6.2513C4.77915 6.2513 4.5644 6.2513 4.41277 6.14371C4.35926 6.10575 4.31255 6.05903 4.27458 6.00553C4.16699 5.85389 4.16699 5.63914 4.16699 5.20964Z" fill="#6366F1"/>
<path d="M4.16699 14.7917C4.16699 14.3622 4.16699 14.1474 4.27458 13.9958C4.31255 13.9423 4.35926 13.8956 4.41277 13.8576C4.5644 13.75 4.77915 13.75 5.20866 13.75C5.63816 13.75 5.85292 13.75 6.00455 13.8576C6.05806 13.8956 6.10477 13.9423 6.14274 13.9958C6.25033 14.1474 6.25033 14.3622 6.25033 14.7917C6.25033 15.2212 6.25033 15.4359 6.14274 15.5876C6.10477 15.6411 6.05806 15.6878 6.00455 15.7257C5.85292 15.8333 5.63816 15.8333 5.20866 15.8333C4.77915 15.8333 4.5644 15.8333 4.41277 15.7257C4.35926 15.6878 4.31255 15.6411 4.27458 15.5876C4.16699 15.4359 4.16699 15.2212 4.16699 14.7917Z" fill="#6366F1"/>
<path d="M13.333 14.7904C13.333 14.2052 13.333 13.9126 13.4734 13.7024C13.5342 13.6114 13.6124 13.5333 13.7034 13.4725C13.9136 13.332 14.2061 13.332 14.7913 13.332C15.3765 13.332 15.6691 13.332 15.8793 13.4725C15.9703 13.5333 16.0484 13.6114 16.1092 13.7024C16.2497 13.9126 16.2497 14.2052 16.2497 14.7904C16.2497 15.3756 16.2497 15.6682 16.1092 15.8783C16.0484 15.9693 15.9703 16.0475 15.8793 16.1083C15.6691 16.2487 15.3765 16.2487 14.7913 16.2487C14.2061 16.2487 13.9136 16.2487 13.7034 16.1083C13.6124 16.0475 13.5342 15.9693 13.4734 15.8783C13.333 15.6682 13.333 15.3756 13.333 14.7904Z" fill="#6366F1"/>
</svg>