<svg xmlns="http://www.w3.org/2000/svg" width="16" height="16" viewBox="0 0 16 16" fill="none">
<path fill-rule="evenodd" clip-rule="evenodd" d="M7.99992 14.6667C4.85722 14.6667 3.28587 14.6667 2.30956 13.6904C1.33325 12.7141 1.33325 11.1427 1.33325 8.00004C1.33325 4.85734 1.33325 3.286 2.30956 2.30968C3.28587 1.33337 4.85722 1.33337 7.99992 1.33337C11.1426 1.33337 12.714 1.33337 13.6903 2.30968C14.6666 3.286 14.6666 4.85734 14.6666 8.00004C14.6666 11.1427 14.6666 12.7141 13.6903 13.6904C12.714 14.6667 11.1426 14.6667 7.99992 14.6667ZM5.97968 5.97982C6.17495 5.78456 6.49153 5.78456 6.68679 5.97982L7.99991 7.29294L9.31302 5.97983C9.50828 5.78457 9.82486 5.78457 10.0201 5.97983C10.2154 6.1751 10.2154 6.49168 10.0201 6.68694L8.70702 8.00005L10.0201 9.31314C10.2154 9.5084 10.2154 9.82498 10.0201 10.0202C9.82485 10.2155 9.50827 10.2155 9.313 10.0202L7.99991 8.70715L6.68681 10.0203C6.49154 10.2155 6.17496 10.2155 5.9797 10.0203C5.78444 9.825 5.78444 9.50842 5.9797 9.31315L7.2928 8.00005L5.97968 6.68693C5.78442 6.49166 5.78442 6.17508 5.97968 5.97982Z" fill="#FF4C6E"/>
</svg>