<svg xmlns="http://www.w3.org/2000/svg" width="40" height="40" viewBox="0 0 40 40" fill="none">
<path d="M15.967 10.6618C17.7614 7.44276 18.6587 5.83325 20 5.83325C21.3414 5.83325 22.2386 7.44276 24.0331 10.6618L24.4973 11.4946C25.0072 12.4093 25.2622 12.8667 25.6597 13.1685C26.0572 13.4703 26.5523 13.5823 27.5425 13.8063L28.444 14.0103C31.9286 14.7987 33.6709 15.1929 34.0854 16.5259C34.4999 17.8588 33.3121 19.2478 30.9366 22.0256L30.322 22.7443C29.6469 23.5337 29.3094 23.9284 29.1576 24.4167C29.0057 24.905 29.0568 25.4316 29.1588 26.4848L29.2517 27.4436C29.6109 31.1499 29.7905 33.0031 28.7052 33.8269C27.62 34.6507 25.9888 33.8996 22.7262 32.3974L21.8821 32.0088C20.955 31.5819 20.4914 31.3685 20 31.3685C19.5087 31.3685 19.0451 31.5819 18.118 32.0088L17.2739 32.3974C14.0113 33.8996 12.38 34.6507 11.2948 33.8269C10.2096 33.0031 10.3892 31.1499 10.7484 27.4437L10.8413 26.4848C10.9433 25.4316 10.9944 24.905 10.8425 24.4167C10.6907 23.9284 10.3531 23.5337 9.67809 22.7443L9.06351 22.0256C6.68798 19.2478 5.50021 17.8588 5.91472 16.5259C6.32923 15.1929 8.0715 14.7987 11.5561 14.0103L12.4575 13.8063C13.4477 13.5823 13.9428 13.4703 14.3404 13.1685C14.7379 12.8667 14.9929 12.4093 15.5028 11.4946L15.967 10.6618Z" stroke="#1C274C" stroke-width="2"/>
</svg>