<svg width="32" height="32" viewBox="0 0 32 32" fill="none" xmlns="http://www.w3.org/2000/svg">
<rect x="0.5" y="0.5" width="31" height="31" stroke="#E3E3E3"/>
<path d="M21.15 12.6994L21.5362 12.3132C22.1761 11.6733 23.2135 11.6733 23.8534 12.3132C24.4933 12.953 24.4933 13.9905 23.8534 14.6304L23.4672 15.0166M21.15 12.6994C21.15 12.6994 21.1983 13.52 21.9224 14.2442C22.6466 14.9683 23.4672 15.0166 23.4672 15.0166M21.15 12.6994L17.5995 16.2499C17.359 16.4904 17.2388 16.6106 17.1354 16.7432C17.0134 16.8996 16.9088 17.0688 16.8235 17.2478C16.7511 17.3996 16.6974 17.561 16.5898 17.8836L16.2455 18.9166L16.1341 19.2508M23.4672 15.0166L19.9167 18.5671C19.6762 18.8076 19.556 18.9278 19.4234 19.0312C19.267 19.1532 19.0978 19.2578 18.9187 19.3431C18.767 19.4154 18.6056 19.4692 18.283 19.5768L17.25 19.9211L16.9158 20.0325M16.9158 20.0325L16.5816 20.1439C16.4228 20.1968 16.2478 20.1555 16.1294 20.0372C16.0111 19.9188 15.9698 19.7438 16.0227 19.585L16.1341 19.2508M16.9158 20.0325L16.1341 19.2508" stroke="#6366F1" stroke-width="1.25"/>
<path d="M12.6666 16.8333H14.75" stroke="#6366F1" stroke-width="1.25" stroke-linecap="round"/>
<path d="M12.6666 13.5H18.0833" stroke="#6366F1" stroke-width="1.25" stroke-linecap="round"/>
<path d="M12.6666 20.1667H13.9166" stroke="#6366F1" stroke-width="1.25" stroke-linecap="round"/>
<path d="M22.5237 8.64306C21.5474 7.66675 19.976 7.66675 16.8333 7.66675H15.1667C12.024 7.66675 10.4526 7.66675 9.47631 8.64306C8.5 9.61937 8.5 11.1907 8.5 14.3334V17.6667C8.5 20.8094 8.5 22.3808 9.47631 23.3571C10.4526 24.3334 12.024 24.3334 15.1667 24.3334H16.8333C19.976 24.3334 21.5474 24.3334 22.5237 23.3571C23.3096 22.5712 23.4629 21.3997 23.4928 19.3334" stroke="#6366F1" stroke-width="1.25" stroke-linecap="round"/>
</svg>
