<svg width="40" height="40" viewBox="0 0 40 40" fill="none" xmlns="http://www.w3.org/2000/svg">
<rect width="40" height="40" fill="white"/>
<path d="M15.9669 10.6618C17.7613 7.44276 18.6585 5.83325 19.9999 5.83325C21.3413 5.83325 22.2385 7.44276 24.0329 10.6618L24.4972 11.4946C25.0071 12.4093 25.2621 12.8667 25.6596 13.1685C26.0571 13.4703 26.5522 13.5823 27.5424 13.8063L28.4439 14.0103C31.9285 14.7987 33.6707 15.1929 34.0852 16.5259C34.4998 17.8588 33.312 19.2478 30.9365 22.0256L30.3219 22.7443C29.6468 23.5337 29.3093 23.9284 29.1574 24.4167C29.0056 24.905 29.0566 25.4316 29.1587 26.4848L29.2516 27.4436C29.6108 31.1499 29.7903 33.0031 28.7051 33.8269C27.6199 34.6507 25.9886 33.8996 22.726 32.3974L21.882 32.0088C20.9549 31.5819 20.4913 31.3685 19.9999 31.3685C19.5085 31.3685 19.045 31.5819 18.1179 32.0088L17.2738 32.3974C14.0112 33.8996 12.3799 34.6507 11.2947 33.8269C10.2095 33.0031 10.3891 31.1499 10.7482 27.4437L10.8411 26.4848C10.9432 25.4316 10.9942 24.905 10.8424 24.4167C10.6905 23.9284 10.353 23.5337 9.67797 22.7443L9.06339 22.0256C6.68785 19.2478 5.50009 17.8588 5.9146 16.5259C6.32911 15.1929 8.07138 14.7987 11.5559 14.0103L12.4574 13.8063C13.4476 13.5823 13.9427 13.4703 14.3403 13.1685C14.7378 12.8667 14.9927 12.4093 15.5027 11.4946L15.9669 10.6618Z" fill="#FFCD29"/>
</svg>
