<svg xmlns="http://www.w3.org/2000/svg" width="16" height="16" viewBox="0 0 16 16" fill="none">
<path fill-rule="evenodd" clip-rule="evenodd" d="M7.99992 1.33337C4.85722 1.33337 3.28587 1.33337 2.30956 2.30968C1.33325 3.286 1.33325 4.85734 1.33325 8.00004C1.33325 11.1427 1.33325 12.7141 2.30956 13.6904C3.28587 14.6667 4.85722 14.6667 7.99992 14.6667C11.1426 14.6667 12.714 14.6667 13.6903 13.6904C14.6666 12.7141 14.6666 11.1427 14.6666 8.00004C14.6666 4.85734 14.6666 3.286 13.6903 2.30968C12.714 1.33337 11.1426 1.33337 7.99992 1.33337ZM7.99992 4.16671C8.27606 4.16671 8.49992 4.39056 8.49992 4.66671V8.66671C8.49992 8.94285 8.27606 9.16671 7.99992 9.16671C7.72378 9.16671 7.49992 8.94285 7.49992 8.66671V4.66671C7.49992 4.39056 7.72378 4.16671 7.99992 4.16671ZM7.99992 11.3334C8.36811 11.3334 8.66658 11.0349 8.66658 10.6667C8.66658 10.2985 8.36811 10 7.99992 10C7.63173 10 7.33325 10.2985 7.33325 10.6667C7.33325 11.0349 7.63173 11.3334 7.99992 11.3334Z" fill="#344054"/>
</svg>
