<svg width="20" height="20" viewBox="0 0 20 20" fill="none" xmlns="http://www.w3.org/2000/svg">
<g id="Linear / Security / Code Scan">
<path id="Vector" d="M4.58301 12.9167C4.58301 12.131 4.58301 11.7382 4.82709 11.4941C5.07116 11.25 5.464 11.25 6.24967 11.25H7.08301C7.86868 11.25 8.26152 11.25 8.5056 11.4941C8.74967 11.7382 8.74967 12.131 8.74967 12.9167V13.75C8.74967 14.5357 8.74967 14.9285 8.5056 15.1726C8.26152 15.4167 7.86868 15.4167 7.08301 15.4167C5.9045 15.4167 5.31524 15.4167 4.94912 15.0506C4.58301 14.6844 4.58301 14.0952 4.58301 12.9167Z" stroke="#344054" stroke-width="1.25"/>
<path id="Vector_2" d="M4.58301 7.08398C4.58301 5.90547 4.58301 5.31622 4.94912 4.9501C5.31524 4.58398 5.9045 4.58398 7.08301 4.58398C7.86868 4.58398 8.26152 4.58398 8.5056 4.82806C8.74967 5.07214 8.74967 5.46498 8.74967 6.25065V7.08398C8.74967 7.86966 8.74967 8.2625 8.5056 8.50657C8.26152 8.75065 7.86868 8.75065 7.08301 8.75065H6.24967C5.464 8.75065 5.07116 8.75065 4.82709 8.50657C4.58301 8.2625 4.58301 7.86966 4.58301 7.08398Z" stroke="#344054" stroke-width="1.25"/>
<path id="Vector_3" d="M11.25 12.9167C11.25 12.131 11.25 11.7382 11.4941 11.4941C11.7382 11.25 12.131 11.25 12.9167 11.25H13.75C14.5357 11.25 14.9285 11.25 15.1726 11.4941C15.4167 11.7382 15.4167 12.131 15.4167 12.9167C15.4167 14.0952 15.4167 14.6844 15.0506 15.0506C14.6844 15.4167 14.0952 15.4167 12.9167 15.4167C12.131 15.4167 11.7382 15.4167 11.4941 15.1726C11.25 14.9285 11.25 14.5357 11.25 13.75V12.9167Z" stroke="#344054" stroke-width="1.25"/>
<path id="Vector_4" d="M11.25 6.25065C11.25 5.46498 11.25 5.07214 11.4941 4.82806C11.7382 4.58398 12.131 4.58398 12.9167 4.58398C14.0952 4.58398 14.6844 4.58398 15.0506 4.9501C15.4167 5.31622 15.4167 5.90547 15.4167 7.08398C15.4167 7.86966 15.4167 8.2625 15.1726 8.50657C14.9285 8.75065 14.5357 8.75065 13.75 8.75065H12.9167C12.131 8.75065 11.7382 8.75065 11.4941 8.50657C11.25 8.2625 11.25 7.86966 11.25 7.08398V6.25065Z" stroke="#344054" stroke-width="1.25"/>
<path id="Vector_5" d="M18.3337 11.666C18.3337 14.8087 18.3337 16.3801 17.3573 17.3564C16.381 18.3327 14.8097 18.3327 11.667 18.3327" stroke="#344054" stroke-width="1.25" stroke-linecap="round"/>
<path id="Vector_6" d="M8.33366 18.3327C5.19096 18.3327 3.61961 18.3327 2.6433 17.3564C1.66699 16.3801 1.66699 14.8087 1.66699 11.666" stroke="#344054" stroke-width="1.25" stroke-linecap="round"/>
<path id="Vector_7" d="M8.33366 1.66602C5.19096 1.66602 3.61961 1.66602 2.6433 2.64233C1.66699 3.61864 1.66699 5.18999 1.66699 8.33268" stroke="#344054" stroke-width="1.25" stroke-linecap="round"/>
<path id="Vector_8" d="M11.667 1.66602C14.8097 1.66602 16.381 1.66602 17.3573 2.64233C18.3337 3.61864 18.3337 5.18999 18.3337 8.33268" stroke="#344054" stroke-width="1.25" stroke-linecap="round"/>
</g>
</svg>
