<svg width="20" height="20" viewBox="0 0 20 20" fill="none" xmlns="http://www.w3.org/2000/svg">
<path d="M3.33301 18.333H16.6663" stroke="#344054" stroke-width="1.25" stroke-linecap="round"/>
<path d="M11.5731 3.05276L12.191 2.43484C13.2148 1.41104 14.8747 1.41104 15.8985 2.43484C16.9223 3.45865 16.9223 5.11856 15.8985 6.14236L15.2806 6.76028M11.5731 3.05276C11.5731 3.05276 11.6503 4.36584 12.8089 5.52444C13.9675 6.68304 15.2806 6.76028 15.2806 6.76028M11.5731 3.05276L5.89222 8.73359C5.50745 9.11837 5.31506 9.31075 5.14961 9.52288C4.95443 9.77311 4.7871 10.0439 4.65057 10.3303C4.53483 10.5732 4.44879 10.8313 4.27671 11.3475L3.54755 13.535M15.2806 6.76028L9.59974 12.4411C9.21497 12.8259 9.02258 13.0183 8.81045 13.1837C8.56022 13.3789 8.28947 13.5462 8.00299 13.6828C7.76014 13.7985 7.50202 13.8845 6.98579 14.0566L4.79829 14.7858M4.79829 14.7858L4.26357 14.964C4.00953 15.0487 3.72945 14.9826 3.5401 14.7932C3.35074 14.6039 3.28463 14.3238 3.36931 14.0698L3.54755 13.535M4.79829 14.7858L3.54755 13.535" stroke="#344054" stroke-width="1.25"/>
</svg>
