<svg width="16" height="16" viewBox="0 0 16 16" fill="none" xmlns="http://www.w3.org/2000/svg">
<path d="M1.33325 8.00004C1.33325 4.85734 1.33325 3.286 2.30956 2.30968C3.28587 1.33337 4.85722 1.33337 7.99992 1.33337C11.1426 1.33337 12.714 1.33337 13.6903 2.30968C14.6666 3.286 14.6666 4.85734 14.6666 8.00004C14.6666 11.1427 14.6666 12.7141 13.6903 13.6904C12.714 14.6667 11.1426 14.6667 7.99992 14.6667C4.85722 14.6667 3.28587 14.6667 2.30956 13.6904C1.33325 12.7141 1.33325 11.1427 1.33325 8.00004Z" fill="#0EA5E9"/>
<path fill-rule="evenodd" clip-rule="evenodd" d="M7.99992 4.83337C8.27606 4.83337 8.49992 5.05723 8.49992 5.33337V7.79293L10.0201 9.31315C10.2154 9.50842 10.2154 9.825 10.0201 10.0203C9.82488 10.2155 9.50829 10.2155 9.31303 10.0203L7.64637 8.35359C7.5526 8.25983 7.49992 8.13265 7.49992 8.00004V5.33337C7.49992 5.05723 7.72378 4.83337 7.99992 4.83337Z" fill="white"/>
</svg>
