<svg xmlns="http://www.w3.org/2000/svg" width="20" height="20" viewBox="0 0 20 20" fill="none">
<g clip-path="url(#clip0_556_11642)">
<path d="M8.75 18.3335V16.6668M12.0833 18.3335V16.6668" stroke="white" stroke-width="1.5" stroke-linecap="round"/>
<path d="M9.16699 16.6667V17.4167H9.91699V16.6667H9.16699ZM11.667 15.9167C11.2528 15.9167 10.917 16.2525 10.917 16.6667C10.917 17.0809 11.2528 17.4167 11.667 17.4167V15.9167ZM14.5837 4.25C14.1694 4.25 13.8337 4.58579 13.8337 5C13.8337 5.41421 14.1694 5.75 14.5837 5.75V4.25ZM5.83366 4.25C5.41945 4.25 5.08366 4.58579 5.08366 5C5.08366 5.41421 5.41945 5.75 5.83366 5.75V4.25ZM7.50033 15.9167C7.08611 15.9167 6.75033 16.2525 6.75033 16.6667C6.75033 17.0809 7.08611 17.4167 7.50033 17.4167V15.9167ZM12.5003 17.4167C12.9145 17.4167 13.2503 17.0809 13.2503 16.6667C13.2503 16.2525 12.9145 15.9167 12.5003 15.9167V17.4167ZM8.41699 9.375V16.6667H9.91699V9.375H8.41699ZM9.16699 15.9167H3.52746V17.4167H9.16699V15.9167ZM2.41699 14.4961V9.375H0.916992V14.4961H2.41699ZM3.52746 15.9167C3.01846 15.9167 2.41699 15.3933 2.41699 14.4961H0.916992C0.916992 15.9965 1.98144 17.4167 3.52746 17.4167V15.9167ZM5.41699 5.75C6.96955 5.75 8.41699 7.26034 8.41699 9.375H9.91699C9.91699 6.65717 8.00657 4.25 5.41699 4.25V5.75ZM5.41699 4.25C2.82741 4.25 0.916992 6.65717 0.916992 9.375H2.41699C2.41699 7.26034 3.86444 5.75 5.41699 5.75V4.25ZM17.5837 9.375V14.5211H19.0837V9.375H17.5837ZM16.4946 15.9167H11.667V17.4167H16.4946V15.9167ZM17.5837 14.5211C17.5837 15.4045 16.9918 15.9167 16.4946 15.9167V17.4167C18.0288 17.4167 19.0837 16.0076 19.0837 14.5211H17.5837ZM19.0837 9.375C19.0837 6.65717 17.1732 4.25 14.5837 4.25V5.75C16.1362 5.75 17.5837 7.26034 17.5837 9.375H19.0837ZM5.83366 5.75H15.0003V4.25H5.83366V5.75ZM7.50033 17.4167H12.5003V15.9167H7.50033V17.4167Z" fill="white"/>
<path d="M4.16699 13.3335H6.66699" stroke="white" stroke-width="1.5" stroke-linecap="round"/>
<path d="M13.333 8.23677V4.50918M13.333 4.50918V2.19583C13.333 1.99905 13.4726 1.82994 13.6659 1.79271L14.0709 1.71466C14.5612 1.62019 15.0681 1.6653 15.534 1.84483L15.6 1.87026C16.0618 2.04825 16.5669 2.08151 17.0482 1.9656C17.2783 1.91017 17.4997 2.08457 17.4997 2.32128V4.17253C17.4997 4.37 17.3644 4.54176 17.1724 4.58801L17.1169 4.60137C16.5909 4.72806 16.0388 4.69172 15.534 4.49716C15.0681 4.31763 14.5612 4.27252 14.0709 4.36699L13.333 4.50918Z" stroke="white" stroke-width="1.5" stroke-linecap="round"/>
</g>
<defs>
<clipPath id="clip0_556_11642">
<rect width="20" height="20" fill="white"/>
</clipPath>
</defs>
</svg>