<svg xmlns="http://www.w3.org/2000/svg" width="20" height="20" viewBox="0 0 20 20" fill="none">
<g clip-path="url(#clip0_556_11577)">
<path d="M8.12377 2.07854L15.1327 6.09998M8.12377 2.07854L2.20894 12.288C1.09228 14.2154 1.75496 16.68 3.68908 17.7928C5.62319 18.9057 8.09634 18.2453 9.213 16.3178L10.4591 14.167M8.12377 2.07854L7.42719 1.66675M15.1327 6.09998L13.2515 9.347M15.1327 6.09998L15.8332 6.5032M13.2515 9.347L11.8237 11.8116M13.2515 9.347L11.1198 8.12051M11.8237 11.8116L10.4591 14.167M11.8237 11.8116L8.32124 9.79638M10.4591 14.167L8.28182 12.9143" stroke="white" stroke-width="1.5" stroke-linecap="round"/>
<path d="M18.3333 12.4305C18.3333 13.3893 17.5871 14.1666 16.6667 14.1666C15.7462 14.1666 15 13.3893 15 12.4305C15 11.8306 15.6525 11.0299 16.1409 10.5145C16.4301 10.2094 16.9032 10.2094 17.1924 10.5145C17.6809 11.0299 18.3333 11.8306 18.3333 12.4305Z" stroke="white" stroke-width="1.5"/>
</g>
<defs>
<clipPath id="clip0_556_11577">
<rect width="20" height="20" fill="white"/>
</clipPath>
</defs>
</svg>