<svg width="80" height="32" viewBox="0 0 80 32" fill="none" xmlns="http://www.w3.org/2000/svg">
<rect x="0.5" y="0.5" width="79" height="31" fill="white"/>
<rect x="0.5" y="0.5" width="79" height="31" stroke="#CCCCCC"/>
<g clip-path="url(#clip0_1233_19453)">
<circle cx="15.6663" cy="15.6673" r="6.33333" stroke="#344054" stroke-width="1.25"/>
<path d="M20.333 20.334L22.6663 22.6673" stroke="#344054" stroke-width="1.25" stroke-linecap="round"/>
</g>
<path d="M35.8523 20.1193C35.2898 20.1193 34.7884 20.0227 34.348 19.8295C33.9105 19.6364 33.5625 19.3679 33.304 19.0241C33.0483 18.6776 32.9091 18.2756 32.8864 17.8182H33.9602C33.983 18.0994 34.0795 18.3423 34.25 18.5469C34.4205 18.7486 34.6435 18.9048 34.919 19.0156C35.1946 19.1264 35.5 19.1818 35.8352 19.1818C36.2102 19.1818 36.5426 19.1165 36.8324 18.9858C37.1222 18.8551 37.3494 18.6733 37.5142 18.4403C37.679 18.2074 37.7614 17.9375 37.7614 17.6307C37.7614 17.3097 37.6818 17.027 37.5227 16.7827C37.3636 16.5355 37.1307 16.3423 36.8239 16.2031C36.517 16.0639 36.142 15.9943 35.6989 15.9943H35V15.0568H35.6989C36.0455 15.0568 36.3494 14.9943 36.6108 14.8693C36.875 14.7443 37.081 14.5682 37.2287 14.3409C37.3793 14.1136 37.4545 13.8466 37.4545 13.5398C37.4545 13.2443 37.3892 12.9872 37.2585 12.7685C37.1278 12.5497 36.9432 12.3793 36.7045 12.2571C36.4688 12.1349 36.1903 12.0739 35.8693 12.0739C35.5682 12.0739 35.2841 12.1293 35.017 12.2401C34.7528 12.348 34.5369 12.5057 34.3693 12.7131C34.2017 12.9176 34.1108 13.1648 34.0966 13.4545H33.0739C33.0909 12.9972 33.2287 12.5966 33.4872 12.2528C33.7457 11.9062 34.0838 11.6364 34.5014 11.4432C34.9219 11.25 35.3835 11.1534 35.8864 11.1534C36.4261 11.1534 36.8892 11.2628 37.2756 11.4815C37.6619 11.6974 37.9588 11.983 38.1662 12.3381C38.3736 12.6932 38.4773 13.0767 38.4773 13.4886C38.4773 13.9801 38.348 14.3991 38.0895 14.7457C37.8338 15.0923 37.4858 15.3324 37.0455 15.4659V15.5341C37.5966 15.625 38.027 15.8594 38.3366 16.2372C38.6463 16.6122 38.8011 17.0767 38.8011 17.6307C38.8011 18.1051 38.6719 18.5312 38.4134 18.9091C38.1577 19.2841 37.8082 19.5795 37.3651 19.7955C36.9219 20.0114 36.4176 20.1193 35.8523 20.1193Z" fill="black"/>
<defs>
<clipPath id="clip0_1233_19453">
<rect width="16" height="16" fill="white" transform="translate(8 8)"/>
</clipPath>
</defs>
</svg>
