<svg width="20" height="20" viewBox="0 0 20 20" fill="none" xmlns="http://www.w3.org/2000/svg">
<path d="M13.0673 12.1557C15.9756 12.1557 18.3333 9.80767 18.3333 6.9112C18.3333 4.01473 15.9756 1.66667 13.0673 1.66667C10.1589 1.66667 7.80125 4.01473 7.80125 6.9112C7.80125 8.25282 8.41358 9.22855 8.41358 9.22855L2.04534 15.5708C1.75959 15.8554 1.35953 16.5953 2.04534 17.2783L2.78014 18.0101C3.06588 18.254 3.78433 18.5955 4.37217 18.0101L5.22943 17.1563C6.08669 18.0101 7.06642 17.5222 7.43382 17.0344C8.04615 16.1806 7.31136 15.3268 7.31136 15.3268L7.55629 15.0829C8.73196 16.2538 9.76068 15.5708 10.1281 15.0829C10.7404 14.2291 10.1281 13.3754 10.1281 13.3754C9.88314 12.8875 9.39331 12.8875 10.0056 12.2777L10.7404 11.5459C11.3283 12.0338 12.5366 12.1557 13.0673 12.1557Z" stroke="#344054" stroke-width="1.25" stroke-linejoin="round"/>
<path d="M14.9042 6.91127C14.9042 7.92167 14.0818 8.74076 13.0672 8.74076C12.0527 8.74076 11.2303 7.92167 11.2303 6.91127C11.2303 5.90088 12.0527 5.08179 13.0672 5.08179C14.0818 5.08179 14.9042 5.90088 14.9042 6.91127Z" stroke="#344054" stroke-width="1.25"/>
</svg>
