<svg width="20" height="20" viewBox="0 0 20 20" fill="none" xmlns="http://www.w3.org/2000/svg">
<path d="M6.66812 5.83334C6.67821 4.02082 6.75859 3.03922 7.39891 2.3989C8.13114 1.66667 9.30965 1.66667 11.6667 1.66667H12.5C14.857 1.66667 16.0355 1.66667 16.7678 2.3989C17.5 3.13114 17.5 4.30965 17.5 6.66667V13.3333C17.5 15.6904 17.5 16.8689 16.7678 17.6011C16.0355 18.3333 14.857 18.3333 12.5 18.3333H11.6667C9.30965 18.3333 8.13114 18.3333 7.39891 17.6011C6.75859 16.9608 6.67821 15.9792 6.66812 14.1667" stroke="#344054" stroke-width="1.25" stroke-linecap="round"/>
<path d="M6.66667 16.25C4.70248 16.25 3.72039 16.25 3.11019 15.6398C2.5 15.0296 2.5 14.0475 2.5 12.0833V7.91667C2.5 5.95248 2.5 4.97039 3.11019 4.36019C3.72039 3.75 4.70248 3.75 6.66667 3.75" stroke="#344054" stroke-width="1.25"/>
<path d="M12.5 9.99999L5 9.99999M5 9.99999L6.66667 11.6667M5 9.99999L6.66667 8.33333" stroke="#344054" stroke-width="1.25" stroke-linecap="round" stroke-linejoin="round"/>
</svg>
