<svg xmlns="http://www.w3.org/2000/svg" width="20" height="20" viewBox="0 0 20 20" fill="none">
<circle cx="10" cy="10" r="2.5" stroke="white" stroke-width="1.5"/>
<path d="M11.4715 1.79337C11.1653 1.6665 10.777 1.6665 10.0004 1.6665C9.22383 1.6665 8.83554 1.6665 8.52926 1.79337C8.12088 1.96253 7.79642 2.28698 7.62726 2.69536C7.55005 2.88179 7.51983 3.09859 7.508 3.41483C7.49062 3.87957 7.25229 4.30975 6.84953 4.54228C6.44677 4.77481 5.95506 4.76612 5.5439 4.5488C5.26411 4.40092 5.06124 4.31869 4.86119 4.29235C4.42294 4.23465 3.97972 4.35341 3.62904 4.6225C3.36603 4.82432 3.17188 5.16058 2.7836 5.83311C2.39532 6.50564 2.20117 6.84191 2.1579 7.17059C2.10021 7.60884 2.21896 8.05205 2.48805 8.40274C2.61088 8.5628 2.78349 8.69736 3.0514 8.86569C3.44524 9.11316 3.69865 9.53472 3.69862 9.99986C3.6986 10.4649 3.4452 10.8864 3.05139 11.1339C2.78345 11.3022 2.61081 11.4368 2.48797 11.5969C2.21888 11.9476 2.10012 12.3908 2.15782 12.829C2.20109 13.1577 2.39523 13.494 2.78352 14.1665C3.1718 14.839 3.36595 15.1753 3.62896 15.3771C3.97964 15.6462 4.42286 15.765 4.8611 15.7073C5.06115 15.6809 5.26401 15.5987 5.54377 15.4508C5.95497 15.2335 6.44671 15.2248 6.84949 15.4574C7.25227 15.6899 7.49062 16.1201 7.508 16.5849C7.51983 16.9011 7.55005 17.1179 7.62726 17.3043C7.79642 17.7127 8.12088 18.0371 8.52926 18.2063C8.83554 18.3332 9.22383 18.3332 10.0004 18.3332C10.777 18.3332 11.1653 18.3332 11.4715 18.2063C11.8799 18.0371 12.2044 17.7127 12.3735 17.3043C12.4508 17.1179 12.481 16.9011 12.4928 16.5848C12.5102 16.1201 12.7485 15.6899 13.1512 15.4574C13.554 15.2248 14.0458 15.2335 14.457 15.4508C14.7367 15.5987 14.9396 15.6809 15.1396 15.7072C15.5779 15.7649 16.0211 15.6461 16.3718 15.3771C16.6348 15.1752 16.8289 14.839 17.2172 14.1664C17.6055 13.4939 17.7996 13.1577 17.8429 12.829C17.9006 12.3907 17.7818 11.9475 17.5127 11.5968C17.3899 11.4367 17.2173 11.3022 16.9494 11.1338C16.5555 10.8864 16.3021 10.4649 16.3022 9.99976C16.3022 9.53471 16.5556 9.11324 16.9494 8.86583C17.2173 8.69746 17.39 8.56288 17.5128 8.40279C17.7819 8.05211 17.9007 7.60889 17.843 7.17065C17.7997 6.84196 17.6056 6.5057 17.2173 5.83317C16.829 5.16064 16.6348 4.82438 16.3718 4.62256C16.0212 4.35347 15.5779 4.23471 15.1397 4.29241C14.9396 4.31874 14.7368 4.40097 14.457 4.54883C14.0458 4.76616 13.5541 4.77485 13.1513 4.54231C12.7485 4.30976 12.5102 3.87955 12.4928 3.41479C12.481 3.09857 12.4507 2.88178 12.3735 2.69536C12.2044 2.28698 11.8799 1.96253 11.4715 1.79337Z" stroke="white" stroke-width="1.5"/>
</svg>