<svg width="16" height="16" viewBox="0 0 16 16" fill="none" xmlns="http://www.w3.org/2000/svg">
<g clip-path="url(#clip0_883_762)">
<path d="M10.4539 9.7245C12.7806 9.7245 14.6667 7.84605 14.6667 5.52888C14.6667 3.2117 12.7806 1.33325 10.4539 1.33325C8.12719 1.33325 6.24104 3.2117 6.24104 5.52888C6.24104 6.60217 6.7309 7.38276 6.7309 7.38276L1.63631 12.4565C1.40771 12.6842 1.08766 13.2761 1.63631 13.8225L2.22415 14.408C2.45274 14.6031 3.0275 14.8763 3.49777 14.408L4.18358 13.725C4.86939 14.408 5.65318 14.0177 5.94709 13.6274C6.43696 12.9444 5.84912 12.2614 5.84912 12.2614L6.04507 12.0662C6.98561 13.0029 7.80858 12.4565 8.1025 12.0662C8.59236 11.3832 8.1025 10.7002 8.1025 10.7002C7.90655 10.3099 7.51469 10.3099 8.00453 9.8221L8.59239 9.23664C9.06266 9.62693 10.0293 9.7245 10.4539 9.7245Z" stroke="#344054" stroke-linejoin="round"/>
<path d="M11.9234 5.52902C11.9234 6.33734 11.2655 6.99261 10.4538 6.99261C9.64221 6.99261 8.98425 6.33734 8.98425 5.52902C8.98425 4.7207 9.64221 4.06543 10.4538 4.06543C11.2655 4.06543 11.9234 4.7207 11.9234 5.52902Z" stroke="#344054"/>
</g>
<defs>
<clipPath id="clip0_883_762">
<rect width="16" height="16" fill="white"/>
</clipPath>
</defs>
</svg>
