<svg xmlns="http://www.w3.org/2000/svg" width="20" height="20" viewBox="0 0 20 20" fill="none">
<path d="M10.8334 18.125C11.1786 18.125 11.4584 17.8452 11.4584 17.5C11.4584 17.1548 11.1786 16.875 10.8334 16.875V18.125ZM2.64306 16.5237L3.085 16.0817L3.085 16.0817L2.64306 16.5237ZM17.3571 3.47631L16.9152 3.91825V3.91825L17.3571 3.47631ZM17.7084 10.8333C17.7084 11.1785 17.9882 11.4583 18.3334 11.4583C18.6786 11.4583 18.9584 11.1785 18.9584 10.8333H17.7084ZM8.33341 3.125H11.6667V1.875H8.33341V3.125ZM2.29175 10.8333V10H1.04175V10.8333H2.29175ZM2.29175 10V9.16667H1.04175V10H2.29175ZM10.8334 16.875H8.33341V18.125H10.8334V16.875ZM17.7084 9.16667V10H18.9584V9.16667H17.7084ZM1.04175 10.8333C1.04175 12.387 1.04042 13.6151 1.16936 14.5742C1.30072 15.5512 1.57748 16.342 2.20112 16.9656L3.085 16.0817C2.73233 15.7291 2.52093 15.246 2.40821 14.4076C2.29308 13.5512 2.29175 12.4223 2.29175 10.8333H1.04175ZM8.33341 16.875C6.7444 16.875 5.61551 16.8737 4.75912 16.7585C3.92071 16.6458 3.43768 16.4344 3.085 16.0817L2.20112 16.9656C2.82475 17.5893 3.61554 17.866 4.59256 17.9974C5.5516 18.1263 6.77974 18.125 8.33341 18.125V16.875ZM11.6667 3.125C13.2558 3.125 14.3847 3.12633 15.241 3.24147C16.0794 3.35419 16.5625 3.56558 16.9152 3.91825L17.799 3.03437C17.1754 2.41073 16.3846 2.13397 15.4076 2.00261C14.4486 1.87367 13.2204 1.875 11.6667 1.875V3.125ZM18.9584 9.16667C18.9584 7.61299 18.9597 6.38485 18.8308 5.42581C18.6994 4.4488 18.4227 3.658 17.799 3.03437L16.9152 3.91825C17.2678 4.27093 17.4792 4.75397 17.5919 5.59237C17.7071 6.44876 17.7084 7.57765 17.7084 9.16667H18.9584ZM8.33341 1.875C6.77974 1.875 5.5516 1.87367 4.59256 2.00261C3.61554 2.13397 2.82475 2.41073 2.20112 3.03437L3.085 3.91825C3.43768 3.56558 3.92071 3.35419 4.75912 3.24147C5.61551 3.12633 6.7444 3.125 8.33341 3.125V1.875ZM2.29175 9.16667C2.29175 7.57765 2.29308 6.44876 2.40821 5.59237C2.52093 4.75397 2.73233 4.27093 3.085 3.91825L2.20112 3.03437C1.57748 3.658 1.30072 4.4488 1.16936 5.42581C1.04042 6.38485 1.04175 7.61299 1.04175 9.16667H2.29175ZM1.66675 10.625H18.3334V9.375H1.66675V10.625ZM17.7084 10V10.8333H18.9584V10H17.7084Z" fill="#6366F1"/>
<path d="M11.25 6.25L15 6.25" stroke="#6366F1" stroke-width="1.25" stroke-linecap="round"/>
<path d="M5 14.5833L5 12.9166" stroke="#6366F1" stroke-width="1.25" stroke-linecap="round"/>
<path d="M5 7.08325L5 5.41659" stroke="#6366F1" stroke-width="1.25" stroke-linecap="round"/>
<path d="M7.5 14.5833L7.5 12.9166" stroke="#6366F1" stroke-width="1.25" stroke-linecap="round"/>
<path d="M7.5 7.08325L7.5 5.41659" stroke="#6366F1" stroke-width="1.25" stroke-linecap="round"/>
<path d="M15.4207 12.5V11.875V12.5ZM12.9868 14.5833H12.3618V14.5833L12.9868 14.5833ZM12.9868 15L12.5804 15.4748C12.8143 15.6751 13.1593 15.6751 13.3932 15.4748L12.9868 15ZM13.88 15.0581C14.1422 14.8337 14.1728 14.4391 13.9484 14.1769C13.7239 13.9147 13.3294 13.8841 13.0671 14.1085L13.88 15.0581ZM12.9064 14.1085C12.6442 13.8841 12.2497 13.9147 12.0252 14.1769C11.8007 14.4391 11.8313 14.8337 12.0936 15.0581L12.9064 14.1085ZM16.991 13.8627C17.1913 14.1438 17.5816 14.2093 17.8627 14.009C18.1438 13.8087 18.2093 13.4184 18.009 13.1373L16.991 13.8627ZM15.4207 11.875C13.826 11.875 12.3618 12.9999 12.3618 14.5833H13.6118C13.6118 13.8656 14.3269 13.125 15.4207 13.125V11.875ZM12.3618 14.5833L12.3618 15L13.6118 15L13.6118 14.5833L12.3618 14.5833ZM13.3932 15.4748L13.88 15.0581L13.0671 14.1085L12.5804 14.5252L13.3932 15.4748ZM13.3932 14.5252L12.9064 14.1085L12.0936 15.0581L12.5804 15.4748L13.3932 14.5252ZM18.009 13.1373C17.4541 12.3586 16.485 11.875 15.4207 11.875V13.125C16.1176 13.125 16.6912 13.442 16.991 13.8627L18.009 13.1373Z" fill="#6366F1"/>
<path d="M15.4126 17.5V18.125V17.5ZM17.8465 15.4167H18.4715H17.8465ZM17.8465 15L18.2529 14.5252C18.019 14.3249 17.674 14.3249 17.4401 14.5252L17.8465 15ZM16.9533 14.9419C16.691 15.1663 16.6604 15.5609 16.8849 15.8231C17.1094 16.0853 17.5039 16.1159 17.7661 15.8915L16.9533 14.9419ZM17.9268 15.8915C18.1891 16.1159 18.5836 16.0853 18.8081 15.8231C19.0325 15.5609 19.0019 15.1663 18.7397 14.9419L17.9268 15.8915ZM13.8422 16.1373C13.6419 15.8562 13.2517 15.7907 12.9705 15.991C12.6894 16.1913 12.6239 16.5816 12.8243 16.8627L13.8422 16.1373ZM15.4126 18.125C17.0073 18.125 18.4715 17.0001 18.4715 15.4167H17.2215C17.2215 16.1344 16.5063 16.875 15.4126 16.875V18.125ZM18.4715 15.4167V15H17.2215V15.4167H18.4715ZM17.4401 14.5252L16.9533 14.9419L17.7661 15.8915L18.2529 15.4748L17.4401 14.5252ZM17.4401 15.4748L17.9268 15.8915L18.7397 14.9419L18.2529 14.5252L17.4401 15.4748ZM12.8243 16.8627C13.3791 17.6414 14.3482 18.125 15.4126 18.125V16.875C14.7157 16.875 14.142 16.558 13.8422 16.1373L12.8243 16.8627Z" fill="#6366F1"/>
</svg>